<svg xmlns="http://www.w3.org/2000/svg" width="128" height="125" viewBox="0 0 128 125">
  <path fill="#E1E1CD" fill-rule="evenodd" d="M64.0005,0 C28.6585,0 0,28.6535 0,64.0005 C0,92.2775 18.338,116.268 43.7675,124.7305 C46.966,125.323 48.1405,123.342 48.1405,121.6515 C48.1405,120.1255 48.0805,115.084 48.0535,109.7365 C30.2485,113.6075 26.4915,102.185 26.4915,102.185 C23.58,94.7875 19.385,92.82 19.385,92.82 C13.5785,88.848 19.823,88.93 19.823,88.93 C26.2495,89.381 29.6335,95.525 29.6335,95.525 C35.342,105.309 44.606,102.4805 48.258,100.845 C48.8325,96.709 50.491,93.885 52.3215,92.287 C38.106,90.669 23.1625,85.181 23.1625,60.658 C23.1625,53.6705 25.6625,47.961 29.7565,43.479 C29.092,41.867 26.9015,35.358 30.3765,26.542 C30.3765,26.542 35.751,24.822 47.9815,33.1025 C53.0865,31.6845 58.5615,30.9735 64.0005,30.949 C69.4395,30.9735 74.919,31.684 80.0335,33.1025 C92.249,24.8225 97.616,26.5425 97.616,26.5425 C101.0995,35.3575 98.908,41.8675 98.2435,43.479 C102.347,47.961 104.83,53.6705 104.83,60.658 C104.83,85.2395 89.858,90.652 75.6065,92.2365 C77.902,94.2225 79.9475,98.1175 79.9475,104.0885 C79.9475,112.6515 79.8735,119.5435 79.8735,121.6515 C79.8735,123.355 81.0255,125.3505 84.2695,124.7215 C109.685,116.25 128,92.2685 128,64.001 C128,28.6535 99.3455,0 64.0005,0 L64.0005,0 Z M23.9705,91.17 C23.8295,91.488 23.329,91.5835 22.8735,91.365 C22.409,91.1565 22.1485,90.723 22.2985,90.404 C22.4365,90.0765 22.938,89.985 23.401,90.2045 C23.866,90.4135 24.131,90.851 23.9705,91.17 L23.9705,91.17 Z M27.1185,93.979 C26.8135,94.262 26.2165,94.1305 25.8115,93.6835 C25.393,93.2375 25.3145,92.6405 25.624,92.3535 C25.939,92.0705 26.5175,92.203 26.937,92.649 C27.356,93.1005 27.437,93.693 27.1185,93.979 L27.1185,93.979 Z M29.2785,97.573 C28.886,97.8455 28.245,97.59 27.8485,97.021 C27.4565,96.452 27.4565,95.7695 27.857,95.496 C28.2545,95.2225 28.886,95.4685 29.2875,96.0335 C29.6785,96.612 29.6785,97.2945 29.278,97.5735 L29.2785,97.573 Z M32.9305,101.7355 C32.58,102.1225 31.8325,102.0185 31.2855,101.4905 C30.726,100.9745 30.5705,100.2425 30.9225,99.8555 C31.2775,99.4675 32.029,99.5765 32.58,100.1005 C33.135,100.6155 33.305,101.353 32.9305,101.7355 L32.9305,101.7355 Z M37.6515,103.1405 C37.4965,103.642 36.7765,103.87 36.052,103.657 C35.328,103.4375 34.8545,102.8505 35.0005,102.344 C35.151,101.839 35.874,101.602 36.604,101.83 C37.327,102.048 37.802,102.631 37.6515,103.141 L37.6515,103.1405 Z M43.0235,103.737 C43.0415,104.2645 42.427,104.702 41.666,104.712 C40.901,104.729 40.2815,104.302 40.273,103.782 C40.273,103.2495 40.874,102.816 41.6395,102.803 C42.4005,102.788 43.0235,103.212 43.0235,103.737 L43.0235,103.737 Z M48.301,103.5345 C48.392,104.0495 47.8635,104.5785 47.1075,104.7195 C46.365,104.855 45.677,104.537 45.5825,104.0265 C45.4905,103.4985 46.029,102.9695 46.7705,102.833 C47.5275,102.7015 48.2045,103.011 48.301,103.5345 L48.301,103.5345 Z"/>
</svg>
