<svg xmlns="http://www.w3.org/2000/svg" width="24" height="156" viewBox="0 0 24 156">
  <g fill="#4D4D36" fill-rule="evenodd" transform="rotate(-90 78 78)">
    <path d="M16.458774 2.07932675C16.458774 1.84170299 16.6731252 1.67536636 16.8636595 1.67536636 17.0780107 1.67536636 17.2923618 1.84170299 17.2923618 2.07932675L17.2923618 7.16435646 20.507629 7.16435646C20.7219802 7.16435646 20.9125145 7.35445547 20.9125145 7.59207923 20.9125145 7.80594061 20.7219802 7.99603962 20.507629 7.99603962L17.2923618 7.99603962 17.2923618 15.0771089C17.2923618 16.8830495 17.9830489 17.5483961 19.936026 17.5483961L20.4838122 17.5483961C20.6981634 17.5483961 20.8886977 17.7147327 20.8886977 17.9523565 20.8886977 18.1899802 20.6981634 18.3800792 20.4838122 18.3800792L19.936026 18.3800792C17.6734305 18.3800792 16.458774 17.3821782 16.458774 15.0771089L16.458774 2.07932675zM23.0081542 17.9524753C23.0081542 18.1663367 22.8176198 18.380198 22.5794519 18.380198 22.341284 18.380198 22.1745664 18.1663367 22.1745664 17.9524753L22.1745664.534772297C22.1745664.297148535 22.341284.130811901 22.5794519.130811901 22.8176198.130811901 23.0081542.297148535 23.0081542.534772297L23.0081542 8.82772279C23.5321237 7.90099012 24.6038794 7.0217822 26.1994855 7.0217822 28.5335313 7.0217822 30.4865084 8.94653467 30.4865084 11.2990099L30.4865084 17.9523565C30.4865084 18.2373862 30.2721573 18.3800792 30.0578061 18.3800792 29.8672718 18.3800792 29.6529206 18.237505 29.6529206 17.9523565L29.6529206 11.2990099C29.6529206 9.56423764 28.1286458 7.85346537 26.271055 7.85346537 24.651513 7.85346537 23.0082733 9.13663368 23.0082733 11.2990099L23.0082733 17.9524753 23.0081542 17.9524753zM40.8466947 11.2991287C40.8466947 13.0337822 39.8940229 13.0811881 38.8699008 13.0811881L33.2254397 13.0811881 33.2254397 14.1980198C33.2254397 16.3602772 34.916313 17.6909703 37.2503588 17.6909703 39.2509695 17.6909703 39.6082214 16.7167129 40.0607405 16.7167129 40.2752107 16.7167129 40.4895618 16.9543367 40.4895618 17.1445545 40.4895618 17.5960396 39.2510885 18.5227723 37.2028443 18.5227723 34.3924626 18.5227723 32.391971 16.7881188 32.391971 14.1981386L32.391971 11.2278416C32.391971 8.9467723 34.3210122 7.02201982 36.6313603 7.02201982 38.8700198 7.02190101 40.8466947 8.8278416 40.8466947 11.2991287zM38.5840992 12.249505C39.7511221 12.249505 40.0131069 12.1070495 40.0131069 11.3704159 40.0131069 9.65964358 38.6793664 7.85358418 36.6312412 7.85358418 34.7020809 7.85358418 33.2254397 9.44554457 33.2254397 11.2277228L33.2254397 12.249505 38.5840992 12.249505zM47.2292382.819920812L47.2292382 8.80396042C47.7532076 7.87722774 48.8249634 6.99801982 50.3968718 6.99801982 52.7309176 6.99801982 54.6600779 8.99405943 54.6600779 11.4414654L54.6600779 14.0315644C54.6600779 16.3840396 52.683284 18.5464159 50.4446244 18.5464159 48.9679832 18.5464159 47.6818763 17.6909703 47.1818427 16.7167129L47.1818427 17.7622574C47.1818427 18.0712871 46.8482885 18.3800792 46.4435221 18.3800792 46.0148198 18.3800792 45.6813847 18.0711683 45.6813847 17.7622574L45.6813847.819920812C45.6813847.487247545 46.0149389.249623783 46.4435221.249623783 46.8958031.249742594 47.2292382.487366357 47.2292382.819920812zM53.1118672 11.4415842C53.1118672 9.9207921 51.7781267 8.42388121 50.1347679 8.42388121 48.7058794 8.42388121 47.2292382 9.54071289 47.2292382 11.4415842L47.2292382 14.7683169C47.2292382 15.4811881 48.4915282 17.1207921 50.1587038 17.1207921 51.754429 17.1207921 53.1119863 15.6 53.1119863 14.0316832L53.1119863 11.4415842 53.1118672 11.4415842zM64.9486947 11.3227723C64.9486947 13.1524753 63.9245725 13.2237624 62.8767527 13.2237624L57.4942763 13.2237624 57.4942763 14.1029703C57.4942763 16.0038416 59.0185511 17.1919604 61.1143099 17.1919604 62.9958366 17.1919604 63.4483557 16.2414654 63.9723252 16.2414654 64.3532748 16.2414654 64.6391954 16.6929505 64.6391954 16.978099 64.6391954 17.5483961 63.2817573 18.5464159 61.0666763 18.5464159 58.0658794 18.5464159 55.9461847 16.7404753 55.9461847 14.0315644L55.9461847 11.370297C55.9461847 8.99405943 57.994429 6.99801982 60.4950733 6.99801982 62.8528168 6.99801982 64.9486947 8.80407923 64.9486947 11.3227723zM62.2573969 12.0831683C63.2100687 12.0831683 63.4482366 11.9405941 63.4482366 11.2752475 63.4482366 9.75445547 62.2335802 8.28118814 60.4712565 8.28118814 58.8278977 8.28118814 57.4941573 9.58811883 57.4941573 11.180198L57.4941573 12.0831683 62.2573969 12.0831683zM71.8792626 15.5523565C71.8792626 12.3919604 65.9966336 14.1741386 65.9966336 10.229703 65.9966336 8.70891091 67.0445725 6.99801982 69.759687 6.99801982 71.3315954 6.99801982 72.9511374 7.59207923 72.9511374 8.16237626 72.9511374 8.4237624 72.6891527 8.97029705 72.308084 8.97029705 71.9271344 8.97029705 71.1888137 8.30495052 69.7836229 8.30495052 68.0211802 8.30495052 67.4019435 9.37425745 67.4019435 10.1584159 67.4019435 12.8673268 73.3085084 11.1564357 73.3085084 15.4811881 73.3085084 17.3584159 71.9033176 18.5465347 69.4741237 18.5465347 67.235345 18.5465347 65.7350061 17.5485149 65.7350061 16.8356436 65.7350061 16.5267327 65.973174 16.1227723 66.2827924 16.1227723 66.8066427 16.1227723 67.2829786 17.239604 69.4264901 17.239604 71.2363282 17.239604 71.8792626 16.4553268 71.8792626 15.5523565zM76.2853695 7.71089111L76.2853695 8.80396042C76.8092198 7.87722774 77.9049115 6.99801982 79.4767008 6.99801982 81.8345634 6.99801982 83.7637237 8.99405943 83.7637237 11.4414654L83.7637237 14.0315644C83.7637237 16.3840396 81.7869298 18.5464159 79.5482702 18.5464159 78.0954458 18.5464159 76.8569725 17.6909703 76.3330031 16.7167129L76.3330031 23.2987723C76.3330031 23.5839208 75.9995679 23.8928317 75.5470489 23.8928317 75.1183466 23.8928317 74.7849115 23.5839208 74.7849115 23.2987723L74.7849115 7.71089111C74.7849115 7.37821784 75.1184656 7.14059408 75.5470489 7.14059408 75.9518153 7.14071289 76.2853695 7.37833665 76.2853695 7.71089111zM82.2156321 11.4415842C82.2156321 9.9207921 80.8581939 8.42388121 79.2148351 8.42388121 77.7858275 8.42388121 76.3330031 9.54071289 76.3330031 11.4415842L76.3330031 14.7683169C76.3330031 15.4811881 77.5714763 17.1207921 79.2624687 17.1207921 80.8343771 17.1207921 82.2157511 15.6 82.2157511 14.0316832L82.2157511 11.4415842 82.2156321 11.4415842zM94.0762763 11.4415842L94.0762763 14.0316832C94.0762763 16.3841584 91.9565817 18.5465347 89.5273878 18.5465347 87.1218916 18.5465347 85.0260137 16.4079208 85.0260137 14.0316832L85.0260137 11.4415842C85.0260137 9.06546537 87.0504412 6.99813863 89.5273878 6.99813863 91.9565817 6.99801982 94.0762763 8.99405943 94.0762763 11.4415842zM92.5281847 11.4415842C92.5281847 9.9207921 91.1945634 8.42388121 89.5273878 8.42388121 87.8602122 8.42388121 86.5741053 9.92091091 86.5741053 11.4415842L86.5741053 14.0316832C86.5741053 15.6237624 87.884029 17.1207921 89.5273878 17.1207921 91.1945634 17.1207921 92.5281847 15.6237624 92.5281847 14.0316832L92.5281847 11.4415842zM100.625656 11.3227723L104.745962 17.3346535C104.793476 17.429703 104.841229 17.5485149 104.841229 17.6673268 104.841229 18.0237624 104.412408 18.4514852 104.007641 18.4514852 103.816988 18.4514852 103.650389 18.3564357 103.531305 18.1664555L99.530084 12.2972673 97.339058 14.2220198 97.339058 17.7624951C97.339058 18.0715248 97.0056229 18.3803169 96.5529847 18.3803169 96.1242824 18.3803169 95.7909664 18.071406 95.7909664 17.7624951L95.7909664.819920812C95.7909664.487247545 96.1244015.249623783 96.5529847.249623783 97.0056229.249623783 97.339058.487247545 97.339058.819920812L97.339058 12.3919604 103.150237 7.23564358C103.269321 7.16435646 103.388405 7.09306933 103.507489 7.09306933 103.888557 7.09306933 104.293443 7.42586141 104.293443 7.82970299 104.293443 7.97227725 104.269745 8.13873269 104.126844 8.25754457L100.625656 11.3227723zM114.058209 11.3227723C114.058209 13.1524753 113.033968 13.2237624 111.986148 13.2237624L106.603672 13.2237624 106.603672 14.1029703C106.603672 16.0038416 108.127947 17.1919604 110.223705 17.1919604 112.105232 17.1919604 112.557751 16.2414654 113.081721 16.2414654 113.462789 16.2414654 113.748591 16.6929505 113.748591 16.978099 113.748591 17.5483961 112.391153 18.5464159 110.176191 18.5464159 107.175275 18.5464159 105.055699 16.7404753 105.055699 14.0315644L105.055699 11.370297C105.055699 8.99405943 107.103824 6.99801982 109.604588 6.99801982 111.962331 6.99801982 114.058209 8.80407923 114.058209 11.3227723zM111.367031 12.0831683C112.319583 12.0831683 112.557751 11.9405941 112.557751 11.2752475 112.557751 9.75445547 111.343214 8.28118814 109.580771 8.28118814 107.937412 8.28118814 106.603672 9.58811883 106.603672 11.180198L106.603672 12.0831683 111.367031 12.0831683zM121.369608 7.80594061L121.369608 8.78019804C121.893458 7.85346537 123.012966 6.97425745 124.561058 6.97425745 126.942618 6.97425745 128.847962 9.04158418 128.847962 11.5365149L128.847962 13.9602772C128.847962 16.3601584 126.895104 18.5700594 124.656325 18.5700594 123.203501 18.5700594 121.965027 17.6909703 121.464875 16.7165941L121.464875 23.1086733C121.464875 23.4651089 121.012356 23.8214258 120.464569 23.8214258 119.892966 23.8214258 119.4882 23.4651089 119.4882 23.1086733L119.4882 7.80594061C119.4882 7.40209903 119.892966 7.1168317 120.440872 7.1168317 120.964603 7.1168317 121.369608 7.40209903 121.369608 7.80594061zM126.871168 11.5366337C126.871168 10.1346535 125.632695 8.75655448 124.10842 8.75655448 122.798615 8.75655448 121.464875 9.80209903 121.464875 11.5366337L121.464875 14.6019802C121.464875 15.2435644 122.608081 16.7881188 124.156173 16.7881188 125.608997 16.7881188 126.871287 15.3861386 126.871287 13.9603961L126.871287 11.5366337 126.871168 11.5366337zM132.58696 2.88724754C132.58696 3.48130695 132.039174 4.0278416 131.372423 4.0278416 130.681736 4.0278416 130.13395 3.48130695 130.13395 2.88724754 130.13395 2.29318814 130.681855 1.77041586 131.372423 1.77041586 132.039293 1.77041586 132.58696 2.29318814 132.58696 2.88724754zM132.372609 7.80594061L132.372609 17.6672079C132.372609 18.0236436 131.92009 18.3800792 131.372423 18.3800792 130.824518 18.3800792 130.395934 18.0236436 130.395934 17.6672079L130.395934 7.80594061C130.395934 7.40209903 130.824637 7.1168317 131.372423 7.1168317 131.920209 7.1168317 132.372609 7.40209903 132.372609 7.80594061zM133.634661 17.1919604L136.707027 12.6772277 133.753745 8.35259408C133.682295 8.25754457 133.610844 8.11497032 133.610844 7.97239606 133.610844 7.49714854 134.349165 6.97437626 134.873253 6.97437626 135.016035 6.97437626 135.254203 7.04566339 135.397104 7.25952477L138.016951 11.3465347 140.684313 7.25952477C140.803397 7.06942576 141.041565 6.97437626 141.208282 6.97437626 141.684499 6.97437626 142.446637 7.49714854 142.446637 7.97239606 142.446637 8.09120794 142.42282 8.21001982 142.327553 8.35259408L139.326756 12.6772277 142.42282 17.1919604C142.494389 17.2870099 142.541904 17.4295842 142.541904 17.5959208 142.541904 18.0236436 141.851217 18.5700594 141.327366 18.5700594 141.136713 18.5700594 140.898545 18.4750099 140.779461 18.2850297L138.016832 14.0792079 135.277901 18.2850297C135.158817 18.4751287 134.920649 18.5700594 134.730115 18.5700594 134.277595 18.5700594 133.515458 18.047406 133.515458 17.5959208 133.515577 17.4533466 133.563211 17.3107723 133.634661 17.1919604zM152.354542 11.3465347C152.354542 13.2475248 151.306603 13.3188119 150.234847 13.3188119L145.019089 13.3188119 145.019089 14.0316832C145.019089 15.790099 146.424279 16.9069307 148.400954 16.9069307 150.187214 16.9069307 150.687247 15.980198 151.282667 15.980198 151.759003 15.980198 152.092438 16.5267327 152.092438 16.8831683 152.092438 17.5009901 150.639733 18.5701782 148.329504 18.5701782 145.233321 18.5701782 143.042295 16.7167129 143.042295 13.9603961L143.042295 11.4653466C143.042295 9.04170299 145.161989 6.97437626 147.781718 6.97437626 150.21115 6.97437626 152.354542 8.80407923 152.354542 11.3465347zM149.425195 11.9881188C150.258783 11.9881188 150.473134 11.8455446 150.473134 11.2277228 150.473134 9.82574259 149.329928 8.54257428 147.75802 8.54257428 146.257562 8.54257428 145.019208 9.68316834 145.019208 11.1326733L145.019208 11.9881188 149.425195 11.9881188 149.425195 11.9881188zM155.903244 1.01001982L155.903244 17.6672079C155.903244 18.0236436 155.450725 18.3800792 154.903058 18.3800792 154.331455 18.3800792 153.926569 18.0236436 153.926569 17.6672079L153.926569 1.01001982C153.926569.606059426 154.331455.320910911 154.903058.320910911 155.450725.321029723 155.903244.606178238 155.903244 1.01001982zM10.4093084.748633684C10.4093084.867445565 10.3854916.96249507 10.3140412 1.05754457L1.28759542 18.6653466C1.19232824 18.9029703.954160305 19.0217822.715992366 19.0217822.382557252 19.0217822.0967557252 18.7366337.0967557252 18.4277228.0967557252 18.3325545.120572519 18.237505.168206107 18.1425743L9.2422855.392316852C9.33755267.178455466 9.52808702.107168337 9.71862137.107168337 10.0281206.107049525 10.4093084.368554476 10.4093084.748633684zM15.2203008.748633684C15.2203008.867445565 15.196484.96249507 15.1250336 1.05754457L6.09858779 18.6653466C6.00332061 18.9029703 5.76515267 19.0217822 5.52698473 19.0217822 5.19354962 19.0217822 4.90774809 18.7366337 4.90774809 18.4277228 4.90774809 18.3325545 4.93156489 18.237505 4.97919847 18.1425743L14.0532779.392435664C14.148545.178574278 14.3390794.107287149 14.5296137.107287149 14.839113.107049525 15.2203008.368554476 15.2203008.748633684zM44.3000107 17.4295842C44.3000107 17.9998812 43.799858 18.5226535 43.228255 18.5226535 42.5853206 18.5226535 42.1328015 17.9998812 42.1328015 17.4295842 42.1328015 16.8117624 42.5853206 16.3128713 43.228255 16.3128713 43.799858 16.3128713 44.3000107 16.8117624 44.3000107 17.4295842zM117.559159 9.44554457C117.559159 10.0159604 117.059006 10.5386139 116.487403 10.5386139 115.844469 10.5386139 115.39195 10.0159604 115.39195 9.44554457 115.39195 8.8278416 115.844469 8.3288317 116.487403 8.3288317 117.059006 8.3288317 117.559159 8.8278416 117.559159 9.44554457zM117.559159 17.4295842C117.559159 17.9998812 117.059006 18.5226535 116.487403 18.5226535 115.844469 18.5226535 115.39195 17.9998812 115.39195 17.4295842 115.39195 16.8117624 115.844469 16.3128713 116.487403 16.3128713 117.059006 16.3128713 117.559159 16.8117624 117.559159 17.4295842L117.559159 17.4295842 117.559159 17.4295842z"/>
  </g>
</svg>
